<svg width="20" height="20" viewBox="0 0 20 20" fill="none" xmlns="http://www.w3.org/2000/svg">
<path d="M7.64221 3.33333C7.98541 2.36234 8.91142 1.66666 9.99992 1.66666C11.0885 1.66666 12.0145 2.36234 12.3577 3.33333" stroke="currentColor" stroke-width="1.5" stroke-linecap="round"/>
<path d="M17.0833 5H2.91656" stroke="currentColor" stroke-width="1.5" stroke-linecap="round"/>
<path d="M15.3113 12.8326C15.1638 15.045 15.09 16.1513 14.3692 16.8256C13.6483 17.5 12.5397 17.5 10.3223 17.5H9.67784C7.46051 17.5 6.35184 17.5 5.631 16.8256C4.91016 16.1513 4.83641 15.045 4.68892 12.8326L4.30563 7.08334M15.6945 7.08334L15.5278 9.58334" stroke="currentColor" stroke-width="1.5" stroke-linecap="round"/>
<path d="M7.91666 9.16666L8.33332 13.3333" stroke="currentColor" stroke-width="1.5" stroke-linecap="round"/>
<path d="M12.0833 9.16666L11.6667 13.3333" stroke="currentColor" stroke-width="1.5" stroke-linecap="round"/>
</svg>
