<svg width="20" height="20" viewBox="0 0 20 20" fill="none" xmlns="http://www.w3.org/2000/svg">
<path d="M11.888 3.66292L12.6296 2.92142C13.8581 1.69286 15.85 1.69286 17.0785 2.92142C18.3072 4.14998 18.3072 6.14188 17.0785 7.37039L16.3371 8.11199M11.888 3.66292C11.888 3.66292 11.9808 5.23862 13.371 6.62893C14.7614 8.01919 16.3371 8.11199 16.3371 8.11199M11.888 3.66292L5.07105 10.4798C4.60929 10.9416 4.37842 11.1725 4.17986 11.427C3.94578 11.7273 3.74498 12.0523 3.58114 12.396C3.44226 12.6875 3.3389 12.9971 3.1325 13.6166L2.47138 15.6L2.25746 16.2416M16.3371 8.11199L9.52015 14.9289C9.0584 15.3907 8.82752 15.6216 8.57296 15.8201C8.27264 16.0542 7.94768 16.255 7.604 16.4189C7.31248 16.5577 7.00288 16.6611 6.38337 16.8675L4.40002 17.5286L3.75842 17.7425M2.25746 16.2416L2.04354 16.8833C1.94195 17.1881 2.02131 17.5243 2.2485 17.7515C2.4757 17.9787 2.81186 18.0581 3.11666 17.9565L3.75842 17.7425M2.25746 16.2416L3.75842 17.7425" stroke="currentColor" stroke-width="1.5"/>
<path d="M2 6.33333H4.08333" stroke="currentColor" stroke-width="1.5" stroke-linecap="round"/>
<path d="M2 3H7.41667" stroke="currentColor" stroke-width="1.5" stroke-linecap="round"/>
<path d="M2 9.66667H3.25" stroke="currentColor" stroke-width="1.5" stroke-linecap="round"/>
</svg>
