<svg width="32" height="32" viewBox="0 0 32 32" fill="none" xmlns="http://www.w3.org/2000/svg">
<rect width="32" height="32" rx="16" fill="url(#paint0_linear)"/>
<path d="M25.9492 11.8801C25.9023 10.8174 25.7304 10.0868 25.4842 9.45375C25.2302 8.78177 24.8394 8.18015 24.3274 7.68002C23.8272 7.17211 23.2215 6.77744 22.5572 6.52745C21.9203 6.28128 21.1934 6.10943 20.1306 6.06257C19.0597 6.01175 18.7198 6 16.0039 6C13.288 6 12.948 6.01175 11.8812 6.05861C10.8183 6.10546 10.0876 6.27746 9.45456 6.52348C8.7823 6.77744 8.18057 7.16814 7.68034 7.68002C7.17233 8.18015 6.77774 8.78574 6.52755 9.44993C6.28133 10.0868 6.10945 10.8134 6.06259 11.8761C6.01175 12.9467 6 13.2866 6 16.002C6 18.7174 6.01175 19.0572 6.05862 20.1239C6.10548 21.1866 6.27751 21.9172 6.52373 22.5502C6.77774 23.2222 7.17233 23.8238 7.68034 24.3239C8.18057 24.8319 8.78627 25.2265 9.45059 25.4765C10.0876 25.7227 10.8143 25.8945 11.8774 25.9414C12.9441 25.9884 13.2842 26 16.0001 26C18.716 26 19.0559 25.9884 20.1228 25.9414C21.1857 25.8945 21.9164 25.7227 22.5494 25.4765C23.8938 24.9569 24.9567 23.8942 25.4764 22.5502C25.7225 21.9133 25.8945 21.1866 25.9414 20.1239C25.9882 19.0572 26 18.7174 26 16.002C26 13.2866 25.996 12.9467 25.9492 11.8801ZM24.1478 20.0458C24.1047 21.0225 23.9406 21.55 23.8039 21.9016C23.4677 22.7729 22.7761 23.4644 21.9046 23.8005C21.5529 23.9372 21.0216 24.1013 20.0484 24.1442C18.9933 24.1912 18.6769 24.2028 16.0079 24.2028C13.3388 24.2028 13.0184 24.1912 11.9671 24.1442C10.9902 24.1013 10.4626 23.9372 10.1109 23.8005C9.67727 23.6402 9.28253 23.3863 8.96212 23.0542C8.62996 22.7299 8.37595 22.3391 8.21568 21.9056C8.0789 21.5539 7.91481 21.0225 7.87191 20.0497C7.8249 18.9948 7.8133 18.6783 7.8133 16.0098C7.8133 13.3412 7.8249 13.0209 7.87191 11.97C7.91481 10.9932 8.0789 10.4658 8.21568 10.1141C8.37595 9.68039 8.62996 9.28587 8.96609 8.96537C9.29031 8.63327 9.68109 8.37932 10.1149 8.21922C10.4666 8.08247 10.9981 7.91841 11.9711 7.87537C13.0262 7.82852 13.3428 7.81677 16.0117 7.81677C18.6847 7.81677 19.0011 7.82852 20.0524 7.87537C21.0293 7.91841 21.5569 8.08247 21.9086 8.21922C22.3423 8.37932 22.737 8.63327 23.0574 8.96537C23.3896 9.28968 23.6436 9.68039 23.8039 10.1141C23.9406 10.4658 24.1047 10.997 24.1478 11.97C24.1946 13.0249 24.2064 13.3412 24.2064 16.0098C24.2064 18.6783 24.1946 18.9909 24.1478 20.0458Z" fill="white"/>
<path d="M16.0042 10.8642C13.1672 10.8642 10.8654 13.1654 10.8654 16.002C10.8654 18.8385 13.1672 21.1397 16.0042 21.1397C18.8413 21.1397 21.1429 18.8385 21.1429 16.002C21.1429 13.1654 18.8413 10.8642 16.0042 10.8642ZM16.0042 19.3347C14.1637 19.3347 12.6708 17.8423 12.6708 16.002C12.6708 14.1617 14.1637 12.6693 16.0042 12.6693C17.8448 12.6693 19.3375 14.1617 19.3375 16.002C19.3375 17.8423 17.8448 19.3347 16.0042 19.3347Z" fill="white"/>
<path d="M22.5454 10.661C22.5454 11.3234 22.0083 11.8604 21.3456 11.8604C20.6832 11.8604 20.146 11.3234 20.146 10.661C20.146 9.9985 20.6832 9.46159 21.3456 9.46159C22.0083 9.46159 22.5454 9.9985 22.5454 10.661Z" fill="white"/>
<defs>
<linearGradient id="paint0_linear" x1="2.68538" y1="29.3146" x2="29.3148" y2="2.68535" gradientUnits="userSpaceOnUse">
<stop stop-color="#FFD600"/>
<stop offset="0.5" stop-color="#FF0100"/>
<stop offset="1" stop-color="#D800B9"/>
</linearGradient>
</defs>
</svg>
