<svg width="50" height="50" viewBox="0 0 50 50" fill="none" xmlns="http://www.w3.org/2000/svg">
<path d="M5.55554 11.5555L11.3222 21.8631V28.1504L5.56229 38.4377L5.55554 11.5555Z" fill="#5B57A2"/>
<path d="M27.6972 18.1123L33.1008 14.8004L44.1595 14.7901L27.6972 24.875V18.1123Z" fill="#D90751"/>
<path d="M27.6667 11.4949L27.6972 25.1417L21.9171 21.5901V1.19049L27.6667 11.4949Z" fill="#FAB718"/>
<path d="M44.1595 14.7901L33.1004 14.8004L27.6667 11.4949L21.9171 1.19049L44.1595 14.7901Z" fill="#ED6F26"/>
<path d="M27.6972 38.4948V31.8738L21.9171 28.3896L21.9202 48.8095L27.6972 38.4948Z" fill="#63B22F"/>
<path d="M33.0873 35.2131L11.3218 21.8631L5.55554 11.5555L44.1361 35.1996L33.0873 35.2131Z" fill="#1487C9"/>
<path d="M21.9206 48.8095L27.6968 38.4948L33.0869 35.2131L44.1357 35.1996L21.9206 48.8095Z" fill="#017F36"/>
<path d="M5.56229 38.4377L21.9643 28.39L16.45 25.0067L11.3222 28.1504L5.56229 38.4377Z" fill="#984995"/>
</svg>
