<svg width="50" height="50" viewBox="0 0 50 50" fill="none" xmlns="http://www.w3.org/2000/svg">
<path d="M31.9994 8C22.5314 8 15 15.6392 15 25C15 34.4684 22.6389 42 31.9994 42C41.3598 42 48.9989 34.3607 48.9989 25C49.1064 15.6392 41.3598 8 31.9994 8ZM31.9994 31.3481C28.5565 31.3481 25.6515 28.4431 25.6515 25C25.6515 21.5569 28.5565 18.6519 31.9994 18.6519C35.4423 18.6519 38.3473 21.5569 38.3473 25C38.3473 28.4431 35.5499 31.3481 31.9994 31.3481Z" fill="#8B3FFD"/>
<path d="M15 13V38H8.81392L1 13H15Z" fill="#8B3FFD"/>
</svg>
