<svg width="50" height="50" fill="none" xmlns="http://www.w3.org/2000/svg"><path d="M42.726 11.268c1.063 1.377 1.949 2.887 2.702 4.486L24.97 30.898l-8.59-5.418v-6.484l8.546 5.373 17.8-13.1Z" fill="#21A038"/><path d="M7.656 25.036c0-.311 0-.578.044-.889l-5.18-.266c0 .355-.045.755-.045 1.11C2.475 31.21 5 36.85 9.073 40.935l3.675-3.687a17.094 17.094 0 0 1-5.092-12.212Z" fill="url(#a)"/><path d="M24.926 7.716c.31 0 .575 0 .885.044l.266-5.196c-.354 0-.753-.044-1.107-.044-6.2 0-11.823 2.531-15.897 6.617l3.675 3.686a17.072 17.072 0 0 1 12.178-5.107Z" fill="url(#b)"/><path d="M24.925 42.356c-.31 0-.575 0-.885-.045l-.266 5.196c.354 0 .753.044 1.107.044 6.2 0 11.823-2.53 15.897-6.617l-3.675-3.686c-3.1 3.198-7.395 5.108-12.178 5.108Z" fill="url(#c)"/><path d="m34.667 10.736 4.384-3.242c-3.852-3.11-8.768-5.019-14.126-5.019v5.196c3.631.045 6.997 1.155 9.742 3.064Z" fill="url(#d)"/><path d="M47.42 25.035c0-1.376-.133-2.709-.354-4.04l-4.827 3.596v.444c0 5.108-2.214 9.682-5.712 12.835l3.498 3.864a22.525 22.525 0 0 0 7.395-16.699Z" fill="#21A038"/><path d="M24.925 42.355c-5.092 0-9.653-2.22-12.797-5.728l-3.852 3.508c4.118 4.574 10.052 7.416 16.65 7.416v-5.196Z" fill="url(#e)"/><path d="M13.368 12.201 9.87 8.337a22.438 22.438 0 0 0-7.395 16.699h5.181A17.3 17.3 0 0 1 13.368 12.2Z" fill="url(#f)"/><defs><linearGradient id="a" x1="8.537" y1="40.302" x2="3.207" y2="24.988" gradientUnits="userSpaceOnUse"><stop offset=".144" stop-color="#F2E913"/><stop offset=".304" stop-color="#E7E518"/><stop offset=".582" stop-color="#CADB26"/><stop offset=".891" stop-color="#A3CD39"/></linearGradient><linearGradient id="b" x1="10.55" y1="8.534" x2="24.001" y2="3.44" gradientUnits="userSpaceOnUse"><stop offset=".059" stop-color="#0FA8E0"/><stop offset=".538" stop-color="#0099F9"/><stop offset=".923" stop-color="#0291EB"/></linearGradient><linearGradient id="c" x1="23.47" y1="43.119" x2="39.491" y2="39.52" gradientUnits="userSpaceOnUse"><stop offset=".123" stop-color="#A3CD39"/><stop offset=".285" stop-color="#86C339"/><stop offset=".869" stop-color="#21A038"/></linearGradient><linearGradient id="d" x1="23.861" y1="5.8" x2="37.189" y2="9.887" gradientUnits="userSpaceOnUse"><stop offset=".057" stop-color="#0291EB"/><stop offset=".79" stop-color="#0C8ACB"/></linearGradient><linearGradient id="e" x1="9.593" y1="40.979" x2="23.909" y2="46.295" gradientUnits="userSpaceOnUse"><stop offset=".132" stop-color="#F2E913"/><stop offset=".298" stop-color="#EBE716"/><stop offset=".531" stop-color="#D9E01F"/><stop offset=".802" stop-color="#BBD62D"/><stop offset=".983" stop-color="#A3CD39"/></linearGradient><linearGradient id="f" x1="6.417" y1="25.663" x2="12.18" y2="10.763" gradientUnits="userSpaceOnUse"><stop offset=".07" stop-color="#A3CD39"/><stop offset=".26" stop-color="#81C55F"/><stop offset=".922" stop-color="#0FA8E0"/></linearGradient></defs></svg>