<svg width="24" height="24" fill="none" xmlns="http://www.w3.org/2000/svg"><g clip-path="url(#a)"><path d="M12 24c6.627 0 12-5.373 12-12S18.627 0 12 0 0 5.373 0 12s5.373 12 12 12Z" fill="#2AABEE"/><path fill-rule="evenodd" clip-rule="evenodd" d="M5.431 11.873c3.498-1.524 5.831-2.528 6.998-3.014 3.333-1.386 4.025-1.627 4.476-1.635.1-.002.322.023.465.14a.506.506 0 0 1 .171.325c.016.093.036.306.02.472-.18 1.898-.962 6.502-1.36 8.627-.167.9-.499 1.201-.82 1.23-.696.065-1.225-.46-1.9-.902-1.056-.692-1.653-1.123-2.678-1.8-1.185-.78-.417-1.209.258-1.91.177-.184 3.247-2.976 3.307-3.23.007-.032.014-.15-.056-.212s-.174-.041-.248-.024c-.107.024-1.794 1.14-5.062 3.346-.48.328-.913.489-1.302.48-.428-.01-1.252-.242-1.865-.441-.751-.244-1.349-.374-1.297-.789.027-.216.325-.437.893-.662Z" fill="#fff"/></g><defs><clipPath id="a"><path fill="#fff" d="M0 0h24v24H0z"/></clipPath></defs></svg>