<svg width="32" height="32" fill="none" xmlns="http://www.w3.org/2000/svg"><rect width="32" height="32" rx="16" fill="url(#a)"/><path d="M25.95 11.88c-.048-1.063-.22-1.793-.466-2.426a4.88 4.88 0 0 0-1.157-1.774 4.923 4.923 0 0 0-1.77-1.153c-.637-.246-1.364-.418-2.426-.464C19.06 6.012 18.72 6 16.004 6c-2.716 0-3.056.012-4.123.059-1.063.046-1.793.218-2.426.464A4.881 4.881 0 0 0 7.68 7.68a4.924 4.924 0 0 0-1.152 1.77c-.247.637-.419 1.363-.465 2.426-.051 1.07-.063 1.41-.063 4.126 0 2.715.012 3.055.059 4.122.046 1.063.219 1.793.465 2.426a4.931 4.931 0 0 0 1.156 1.774c.5.508 1.106.902 1.77 1.152.638.247 1.364.419 2.427.465 1.067.047 1.407.059 4.123.059s3.056-.012 4.123-.059c1.063-.046 1.793-.218 2.426-.464a5.116 5.116 0 0 0 2.927-2.927c.247-.637.419-1.363.465-2.426.047-1.067.059-1.407.059-4.122s-.004-3.055-.05-4.122Zm-1.802 8.166c-.043.977-.207 1.504-.344 1.856a3.318 3.318 0 0 1-1.9 1.898c-.351.137-.882.301-1.856.344-1.055.047-1.371.059-4.04.059-2.67 0-2.99-.012-4.04-.059-.978-.043-1.505-.207-1.857-.343a3.079 3.079 0 0 1-1.149-.747 3.11 3.11 0 0 1-.746-1.148c-.137-.352-.301-.883-.344-1.856-.047-1.055-.059-1.372-.059-4.04 0-2.669.012-2.99.059-4.04.043-.977.207-1.504.344-1.856a3.04 3.04 0 0 1 .75-1.149 3.105 3.105 0 0 1 1.149-.746c.352-.137.883-.3 1.856-.344 1.055-.046 1.372-.058 4.04-.058 2.674 0 2.99.012 4.041.058.977.043 1.505.207 1.857.344.433.16.828.414 1.148.746.333.325.587.715.747 1.15.137.35.3.882.344 1.855.047 1.055.058 1.371.058 4.04 0 2.668-.011 2.98-.058 4.036Z" fill="#fff"/><path d="M16.004 10.864a5.14 5.14 0 0 0-5.139 5.138 5.14 5.14 0 0 0 10.278 0 5.14 5.14 0 0 0-5.139-5.138Zm0 8.47a3.334 3.334 0 1 1 0-6.666 3.334 3.334 0 0 1 0 6.667ZM22.545 10.661a1.2 1.2 0 1 1-2.399 0 1.2 1.2 0 0 1 2.4 0Z" fill="#fff"/><defs><linearGradient id="a" x1="2.685" y1="29.315" x2="29.315" y2="2.685" gradientUnits="userSpaceOnUse"><stop stop-color="#FFD600"/><stop offset=".5" stop-color="#FF0100"/><stop offset="1" stop-color="#D800B9"/></linearGradient></defs></svg>