<svg width="28" height="24" fill="none" xmlns="http://www.w3.org/2000/svg"><g clip-path="url(#a)"><path d="M27.4 5.13a3.543 3.543 0 0 0-2.465-2.518C22.745 2 13.989 2 13.989 2S5.23 2 3.042 2.588C1.867 2.918.899 3.906.576 5.13 0 7.365 0 12 0 12s0 4.659.576 6.87a3.543 3.543 0 0 0 2.466 2.518C5.254 22 13.989 22 13.989 22s8.757 0 10.946-.588a3.543 3.543 0 0 0 2.466-2.518c.576-2.235.576-6.87.576-6.87s.023-4.66-.576-6.895Z" fill="red"/><path d="M11.2 16.282 18.481 12l-7.283-4.282v8.564Z" fill="#fff"/></g><defs><clipPath id="a"><path fill="#fff" transform="translate(0 2)" d="M0 0h28v20H0z"/></clipPath></defs></svg>