<svg width="50" height="50" fill="none" xmlns="http://www.w3.org/2000/svg"><path d="m5.556 11.556 5.766 10.307v6.287l-5.76 10.288-.006-26.883Z" fill="#5B57A2"/><path d="m27.697 18.112 5.404-3.312 11.059-.01-16.463 10.085v-6.763Z" fill="#D90751"/><path d="m27.667 11.495.03 13.647-5.78-3.552V1.19l5.75 10.305Z" fill="#FAB718"/><path d="m44.16 14.79-11.06.01-5.433-3.305-5.75-10.305 22.242 13.6Z" fill="#ED6F26"/><path d="M27.697 38.495v-6.621l-5.78-3.484.003 20.42 5.777-10.315Z" fill="#63B22F"/><path d="m33.087 35.213-21.765-13.35-5.766-10.307L44.136 35.2l-11.049.013Z" fill="#1487C9"/><path d="m21.92 48.81 5.777-10.315 5.39-3.282 11.049-.013L21.92 48.81Z" fill="#017F36"/><path d="M5.562 38.438 21.964 28.39l-5.514-3.383-5.128 3.143-5.76 10.288Z" fill="#984995"/></svg>