<svg width="50" height="50" fill="none" xmlns="http://www.w3.org/2000/svg"><g clip-path="url(#a)"><path d="M25 50c13.807 0 25-11.193 25-25S38.807 0 25 0 0 11.193 0 25s11.193 25 25 25Z" fill="#FF8C00"/><path d="M35.297 30.383c.08.626-.099.869-.297.869-.198 0-.477-.243-.773-.727-.297-.484-.418-1.031-.258-1.313.098-.182.317-.264.575-.162.515.203.714.99.753 1.333Zm-2.777 1.375c.614.525.794 1.13.475 1.575a1.038 1.038 0 0 1-.812.362 1.4 1.4 0 0 1-.933-.343c-.555-.485-.714-1.293-.358-1.736a.764.764 0 0 1 .636-.283c.317 0 .675.14.992.423v.002Zm-21.583-8.486c0-7.677 6.11-13.897 13.647-13.897 7.54 0 13.649 6.222 13.649 13.897 0 2.505-.664 4.966-1.924 7.131-.04.061-.14.04-.159-.04-.475-3.415-2.519-5.293-5.494-5.858-.26-.04-.298-.203.04-.242.912-.082 2.2-.061 2.874.06.041-.355.062-.713.061-1.071 0-5.07-4.047-9.191-9.026-9.191-4.978 0-9.025 4.12-9.025 9.19 0 5.072 4.047 9.193 9.025 9.193h.417a12.615 12.615 0 0 1-.18-2.485c.02-.565.14-.646.378-.203 1.25 2.203 3.035 4.183 6.527 4.969 2.856.648 5.712 1.395 8.787 5.375.277.344-.139.706-.456.423-3.134-2.828-5.99-3.757-8.589-3.757-2.917.022-4.9.406-6.905.406-7.537 0-13.646-6.225-13.646-13.902v.002Z" fill="#fff"/></g><defs><clipPath id="a"><path fill="#fff" d="M0 0h50v50H0z"/></clipPath></defs></svg>