<?xml version="1.0" encoding="utf-8"?><svg viewBox="0 0 800 800" xmlns="http://www.w3.org/2000/svg" xmlns:xlink="http://www.w3.org/1999/xlink"><style>:root>svg{display:none}:root>svg:target{display:block}</style><svg fill="none" viewBox="0 0 8 16" id="arrow-next" xmlns="http://www.w3.org/2000/svg"><path d="m1 15 5-7-5-7" stroke="currentColor" stroke-width="2"/></svg><svg fill="none" viewBox="0 0 8 16" id="arrow-prev" xmlns="http://www.w3.org/2000/svg"><path d="M7 1 2 8l5 7" stroke="currentColor" stroke-width="2"/></svg><svg viewBox="0 0 24 24" fill="none" id="icon-box" xmlns="http://www.w3.org/2000/svg"><path d="M22 12H2M12 2v20m1-10a4 4 0 0 0 4 4m-6-4a4 4 0 0 1-4 4" stroke="currentColor" stroke-width="1.5" stroke-linecap="round"/><path d="M12 10.035a3.247 3.247 0 0 1 2.46-3.15c1.603-.4 3.056 1.052 2.655 2.656a3.247 3.247 0 0 1-3.15 2.46H12v-1.966Zm0 0a3.247 3.247 0 0 0-2.46-3.15c-1.603-.4-3.056 1.052-2.655 2.656a3.247 3.247 0 0 0 3.15 2.46H12v-1.966Z" stroke="currentColor" stroke-width="1.5"/><path d="M22 12c0 4.714 0 7.071-1.465 8.535C19.072 22 16.714 22 12 22s-7.071 0-8.536-1.465C2 19.072 2 16.714 2 12s0-7.071 1.464-8.536C4.93 2 7.286 2 12 2c4.714 0 7.071 0 8.535 1.464.974.974 1.3 2.343 1.41 4.536" stroke="currentColor" stroke-width="1.5" stroke-linecap="round"/></svg><svg viewBox="0 0 24 24" fill="none" id="icon-cart" xmlns="http://www.w3.org/2000/svg"><path d="M3 11h4m14 0H11m-1 3h4m4-5-3-6M6 9l3-6" stroke="currentColor" stroke-width="1.5" stroke-linecap="round" stroke-linejoin="round"/><path d="M20.016 16.257c-.487 2.273-.73 3.409-1.555 4.076-.825.667-1.987.667-4.311.667h-4.3c-2.324 0-3.486 0-4.31-.667-.826-.667-1.07-1.803-1.556-4.076l-.429-2c-.718-3.353-1.078-5.03-.177-6.143C4.278 7 5.993 7 9.422 7h5.156c3.43 0 5.143 0 6.044 1.114.67.83.643 1.972.288 3.886" stroke="currentColor" stroke-width="1.5" stroke-linecap="round"/></svg><svg viewBox="0 0 14 14" id="icon-cross" xmlns="http://www.w3.org/2000/svg"><path fill-rule="evenodd" clip-rule="evenodd" d="m8.414 7 5.293-5.293A.999.999 0 1 0 12.293.293L7 5.586 1.707.293A.999.999 0 1 0 .293 1.707L5.586 7 .293 12.293a.999.999 0 1 0 1.414 1.414L7 8.414l5.293 5.293a.997.997 0 0 0 1.414 0 .999.999 0 0 0 0-1.414L8.414 7Z" fill="currentColor"/></svg><svg fill="none" viewBox="0 0 20 20" id="icon-edit" xmlns="http://www.w3.org/2000/svg"><path d="m11.888 3.663.742-.742a3.146 3.146 0 1 1 4.448 4.45l-.74.741m-4.45-4.45s.093 1.577 1.483 2.967c1.39 1.39 2.966 1.483 2.966 1.483m-4.449-4.45L5.071 10.48c-.462.462-.693.692-.891.947-.234.3-.435.625-.599.969-.139.291-.242.601-.449 1.22l-.66 1.984-.215.642m14.08-8.13L9.52 14.929c-.462.462-.692.693-.947.891-.3.234-.625.435-.969.599-.292.139-.601.242-1.22.448L4.4 17.53l-.642.213m-1.5-1.5-.214.641a.849.849 0 0 0 1.073 1.073l.641-.213m-1.5-1.501 1.5 1.5" stroke="currentColor" stroke-width="1.5"/><path d="M2 6.333h2.083M2 3h5.417M2 9.667h1.25" stroke="currentColor" stroke-width="1.5" stroke-linecap="round"/></svg><svg viewBox="0 0 24 24" fill="none" id="icon-medal" xmlns="http://www.w3.org/2000/svg"><path d="M11.146 7.023C11.526 6.34 11.716 6 12 6c.284 0 .474.34.854 1.023l.098.176c.108.194.162.29.246.354.085.064.19.088.4.135l.19.044c.738.167 1.107.25 1.195.532.088.283-.164.577-.667 1.165l-.13.152c-.143.167-.215.25-.247.354-.032.104-.021.215 0 .438l.02.203c.076.785.114 1.178-.115 1.352-.23.174-.576.015-1.267-.303l-.178-.082c-.197-.09-.295-.135-.399-.135-.104 0-.202.045-.399.135l-.178.082c-.691.319-1.037.477-1.267.303-.23-.174-.191-.567-.115-1.352l.02-.203c.021-.223.032-.334 0-.438-.032-.103-.104-.187-.247-.354l-.13-.152c-.503-.588-.755-.882-.667-1.165.088-.282.457-.365 1.195-.532l.19-.044c.21-.047.315-.07.4-.135.084-.064.138-.16.246-.354l.098-.176ZM12 16.068l-3.771 3.905c-.54.56-.81.839-1.04.935-.52.22-1.099.032-1.373-.448-.12-.21-.158-.59-.232-1.35-.043-.43-.064-.644-.128-.824a1.433 1.433 0 0 0-.835-.864c-.173-.067-.38-.088-.795-.132-.734-.078-1.101-.117-1.305-.241-.463-.284-.646-.883-.433-1.422.094-.237.364-.517.904-1.076L5.456 12M12 16.068l3.771 3.905c.54.56.81.839 1.04.935.52.22 1.099.032 1.373-.448.12-.21.157-.59.232-1.35.043-.43.064-.644.128-.824.144-.402.446-.715.835-.864.173-.067.38-.088.795-.132.734-.078 1.101-.117 1.305-.241.463-.284.646-.883.433-1.422-.094-.237-.364-.517-.904-1.076L18.544 12" stroke="currentColor" stroke-width="1.5"/><path d="M5.5 6.397A7 7 0 1 0 9.397 2.5" stroke="currentColor" stroke-width="1.5" stroke-linecap="round"/></svg><svg viewBox="0 0 24 24" fill="none" id="icon-text" xmlns="http://www.w3.org/2000/svg"><path d="M9 9h6m-3 6V9" stroke="currentColor" stroke-width="1.5" stroke-linecap="round"/><path d="M6 4a2 2 0 1 1-4 0 2 2 0 0 1 4 0Zm0 16a2 2 0 1 1-4 0 2 2 0 0 1 4 0ZM22 4a2 2 0 1 1-4 0 2 2 0 0 1 4 0Zm0 16a2 2 0 1 1-4 0 2 2 0 0 1 4 0Z" stroke="currentColor" stroke-width="1.5"/><path d="M18 4H6m14 14v-6m0-6v2m-2 12h-6m-6 0h2M4 6v12" stroke="currentColor" stroke-width="1.5" stroke-linecap="round"/></svg><svg viewBox="0 0 24 24" fill="none" id="icon-timer" xmlns="http://www.w3.org/2000/svg"><path d="M12 9v4l2.5 2.5m-11-11 4-2.5m13 2.5-4-2.5" stroke="currentColor" stroke-width="1.5" stroke-linecap="round" stroke-linejoin="round"/><path d="M7.5 5.204A9 9 0 1 1 4.204 8.5" stroke="currentColor" stroke-width="1.5" stroke-linecap="round"/></svg><svg fill="none" viewBox="0 0 20 20" id="icon-trash" xmlns="http://www.w3.org/2000/svg"><path d="M7.642 3.333a2.501 2.501 0 0 1 4.716 0M17.083 5H2.917m12.394 7.833c-.147 2.212-.221 3.318-.942 3.993-.72.674-1.83.674-4.047.674h-.644c-2.217 0-3.326 0-4.047-.674-.72-.675-.795-1.781-.942-3.993l-.383-5.75m11.389 0-.167 2.5m-7.611-.416.416 4.166m3.75-4.166-.416 4.166" stroke="currentColor" stroke-width="1.5" stroke-linecap="round"/></svg><svg fill="none" viewBox="0 0 16 22" id="icon-up" xmlns="http://www.w3.org/2000/svg"><path d="M9.031.585a1.444 1.444 0 0 0-.477-.303 1.358 1.358 0 0 0-1.097 0c-.178.069-.34.172-.477.303L1.202 6.363a1.45 1.45 0 0 0 2.051 2.051l3.308-3.322v15.297a1.444 1.444 0 1 0 2.889 0V5.092l3.308 3.322a1.45 1.45 0 0 0 2.05-2.051L9.032.585Z" fill="currentColor"/></svg></svg>